<?xml version="1.0"?>
<svg xmlns="http://www.w3.org/2000/svg" xmlns:xlink="http://www.w3.org/1999/xlink" xmlns:svgjs="http://svgjs.com/svgjs" version="1.1" width="512" height="512" x="0" y="0" viewBox="0 0 512 512" style="enable-background:new 0 0 512 512" xml:space="preserve" class=""><g><path xmlns="http://www.w3.org/2000/svg" d="m218.152344 92.929688c-7.84375 0-15.363282 6.886718-15 14.976562.367187 8.113281 6.59375 14.972656 15 14.972656 7.847656 0 15.363281-6.886718 15-14.972656-.363282-8.113281-6.589844-14.976562-15-14.976562zm0 0" fill="#ffffff" data-original="#000000" style="" class=""/><path xmlns="http://www.w3.org/2000/svg" d="m323.410156 107.90625c.363282 8.113281 6.589844 14.972656 15 14.972656 7.84375 0 15.363282-6.886718 15-14.972656-.367187-8.113281-6.59375-14.976562-15-14.976562-7.847656 0-15.363281 6.886718-15 14.976562zm0 0" fill="#ffffff" data-original="#000000" style="" class=""/><path xmlns="http://www.w3.org/2000/svg" d="m120.300781 0v29.949219c9.988281 0 19.953125 1.023437 29.710938 2.980469v50.242187c0 17.957031 3.683593 35.070313 10.332031 50.632813-38.574219 13.894531-85.265625 38.425781-116.683594 80.847656-26.609375 35.929687-41.640625 84.554687-43.46875 140.617187-1.363281 41.808594 4.972656 73.003907 5.242188 74.3125l2.714844 13.140625 13.382812-1.257812c1.019531-.097656 19.863281-1.941406 46.425781-8.878906 23.9375 10.980468 49.269531 17.386718 75.550781 19.152343v59.453125h30v-59.449218c5.8125-.390626 11.582032-1.003907 17.296876-1.847657v62.105469h30v-68.746094c34.183593-10.152344 65.507812-28.683594 91.433593-54.566406 41.0625-40.992188 63.679688-95.5 63.679688-153.476562 0-19.527344-2.597657-38.804688-7.710938-57.449219 25.347657-23.648438 41.222657-57.300781 41.222657-94.589844v-52.230469c5.269531-.648437 32.179687-.878906 32.179687-.878906v-30.0625zm211.726563 29.949219c-22.996094 16.421875-41.507813 38.722656-53.308594 64.683593-8.785156-17.613281-21.136719-33.859374-36.707031-47.996093-6.757813-6.132813-13.933594-11.703125-21.460938-16.6875zm-264.246094 202.511719c28.421875-38.378907 72.457031-60.195313 107.75-72.246094 13.796875 18.546875 32.433594 33.296875 54.03125 42.375-1.449219 36.382812-9.578125 83.863281-37.523438 121.59375-44.265624 59.769531-126.589843 79.675781-159.351562 85.414062-4.113281-32.96875-9.167969-117.375 35.09375-177.136718zm90.726562 189.847656c-15.085937 0-29.84375-1.753906-44.167968-5.210938 43.714844-18.125 78.664062-43.835937 101.824218-75.109375 15.375-20.757812 25.554688-43.761719 32.1875-66.566406 17.375-18.949219 37.304688-27.378906 55.0625-23.160156 14.898438 3.535156 27.433594 16.117187 35.132813 34.949219-22.621094 77.945312-94.769531 135.097656-180.039063 135.097656zm187.410157-187.097656c0 2.828124-.074219 5.640624-.199219 8.441406-10.015625-10.285156-22.015625-17.359375-35.363281-20.527344-17.558594-4.171875-35.769531-1.421875-52.976563 7.5625.824219-6.761719 1.402344-13.332031 1.789063-19.65625 6.695312 1.070312 13.558593 1.632812 20.554687 1.632812 22.535156 0 43.742188-5.769531 62.226563-15.902343 2.632812 12.582031 3.96875 25.449219 3.96875 38.449219zm33.511719-152.039063c0 54.890625-44.730469 99.542969-99.707032 99.542969-54.980468 0-99.710937-44.652344-99.710937-99.542969v-40.96875c15.347656 6.515625 29.578125 15.484375 41.816406 26.59375 27.457031 24.929687 42.582031 57.640625 42.582031 92.109375h30c0-56 35.394532-103.894531 85.019532-122.578125zm0 0" fill="#ffffff" data-original="#000000" style="" class=""/></g></svg>
